<mxfile host="app.diagrams.net" modified="2023-12-15T03:47:27.545Z" agent="Mozilla/5.0 (Windows NT 10.0; Win64; x64) AppleWebKit/537.36 (KHTML, like Gecko) Chrome/120.0.0.0 Safari/537.36" etag="HSYCe6TUfPmAf3R8r4hx" version="22.1.9" type="github">
  <diagram name="Page-1" id="-_dRxD-CMfEydbS7bcmJ">
    <mxGraphModel dx="1436" dy="899" grid="1" gridSize="10" guides="1" tooltips="1" connect="1" arrows="1" fold="1" page="1" pageScale="1" pageWidth="1169" pageHeight="827" math="0" shadow="0">
      <root>
        <mxCell id="0" />
        <mxCell id="1" parent="0" />
        <mxCell id="yVvrD8yItzsmRmxKdgbD-3" value="Main" parent="0" />
        <mxCell id="yVvrD8yItzsmRmxKdgbD-4" value="" style="rounded=0;whiteSpace=wrap;html=1;" vertex="1" parent="yVvrD8yItzsmRmxKdgbD-3">
          <mxGeometry width="1169" height="130" as="geometry" />
        </mxCell>
        <mxCell id="yVvrD8yItzsmRmxKdgbD-5" value="&lt;font style=&quot;font-size: 30px;&quot;&gt;Library&lt;/font&gt;" style="rounded=1;whiteSpace=wrap;html=1;" vertex="1" parent="yVvrD8yItzsmRmxKdgbD-3">
          <mxGeometry x="830" y="25" width="310" height="80" as="geometry" />
        </mxCell>
        <mxCell id="yVvrD8yItzsmRmxKdgbD-21" value="&lt;font style=&quot;font-size: 30px;&quot;&gt;Submit Game&lt;/font&gt;" style="rounded=1;whiteSpace=wrap;html=1;" vertex="1" parent="yVvrD8yItzsmRmxKdgbD-3">
          <mxGeometry x="30" y="25" width="220" height="80" as="geometry" />
        </mxCell>
        <mxCell id="yVvrD8yItzsmRmxKdgbD-56" value="Input" parent="0" visible="0" />
        <mxCell id="yVvrD8yItzsmRmxKdgbD-57" value="" style="rounded=0;whiteSpace=wrap;html=1;" vertex="1" parent="yVvrD8yItzsmRmxKdgbD-56">
          <mxGeometry x="80" y="190" width="1020" height="620" as="geometry" />
        </mxCell>
        <mxCell id="yVvrD8yItzsmRmxKdgbD-58" value="insert PGN or FEN string here" style="rounded=0;whiteSpace=wrap;html=1;" vertex="1" parent="yVvrD8yItzsmRmxKdgbD-56">
          <mxGeometry x="120" y="230" width="700" height="30" as="geometry" />
        </mxCell>
        <mxCell id="yVvrD8yItzsmRmxKdgbD-59" value="FEN / PGN" style="rounded=1;whiteSpace=wrap;html=1;" vertex="1" parent="yVvrD8yItzsmRmxKdgbD-56">
          <mxGeometry x="120" y="290" width="120" height="30" as="geometry" />
        </mxCell>
        <mxCell id="yVvrD8yItzsmRmxKdgbD-60" value="insert date here" style="rounded=0;whiteSpace=wrap;html=1;" vertex="1" parent="yVvrD8yItzsmRmxKdgbD-56">
          <mxGeometry x="260" y="290" width="160" height="30" as="geometry" />
        </mxCell>
        <mxCell id="yVvrD8yItzsmRmxKdgbD-61" value="insert winner color here" style="rounded=0;whiteSpace=wrap;html=1;" vertex="1" parent="yVvrD8yItzsmRmxKdgbD-56">
          <mxGeometry x="440" y="290" width="160" height="30" as="geometry" />
        </mxCell>
        <mxCell id="yVvrD8yItzsmRmxKdgbD-62" value="&lt;b&gt;SUBMIT&lt;/b&gt;" style="rounded=1;whiteSpace=wrap;html=1;" vertex="1" parent="yVvrD8yItzsmRmxKdgbD-56">
          <mxGeometry x="700" y="290" width="120" height="30" as="geometry" />
        </mxCell>
        <mxCell id="yVvrD8yItzsmRmxKdgbD-63" value="Converted PGN / FEN text here" style="rounded=0;whiteSpace=wrap;html=1;" vertex="1" parent="yVvrD8yItzsmRmxKdgbD-56">
          <mxGeometry x="120" y="350" width="870" height="410" as="geometry" />
        </mxCell>
        <mxCell id="yVvrD8yItzsmRmxKdgbD-64" value="" style="rounded=0;whiteSpace=wrap;html=1;" vertex="1" parent="yVvrD8yItzsmRmxKdgbD-56">
          <mxGeometry x="1030" y="360" width="30" height="410" as="geometry" />
        </mxCell>
        <mxCell id="yVvrD8yItzsmRmxKdgbD-65" value="" style="rounded=0;whiteSpace=wrap;html=1;" vertex="1" parent="yVvrD8yItzsmRmxKdgbD-56">
          <mxGeometry x="1030" y="350" width="30" height="30" as="geometry" />
        </mxCell>
        <mxCell id="yVvrD8yItzsmRmxKdgbD-66" value="" style="rounded=0;whiteSpace=wrap;html=1;" vertex="1" parent="yVvrD8yItzsmRmxKdgbD-56">
          <mxGeometry x="1030" y="740" width="30" height="30" as="geometry" />
        </mxCell>
        <mxCell id="yVvrD8yItzsmRmxKdgbD-69" value="Games" parent="0" />
        <mxCell id="yVvrD8yItzsmRmxKdgbD-71" value="" style="rounded=0;whiteSpace=wrap;html=1;" vertex="1" parent="yVvrD8yItzsmRmxKdgbD-69">
          <mxGeometry x="90" y="200" width="1020" height="620" as="geometry" />
        </mxCell>
        <mxCell id="yVvrD8yItzsmRmxKdgbD-72" value="" style="rounded=0;whiteSpace=wrap;html=1;" vertex="1" parent="yVvrD8yItzsmRmxKdgbD-69">
          <mxGeometry x="1040" y="230" width="30" height="550" as="geometry" />
        </mxCell>
        <mxCell id="yVvrD8yItzsmRmxKdgbD-73" value="" style="rounded=0;whiteSpace=wrap;html=1;" vertex="1" parent="yVvrD8yItzsmRmxKdgbD-69">
          <mxGeometry x="1040" y="230" width="30" height="30" as="geometry" />
        </mxCell>
        <mxCell id="yVvrD8yItzsmRmxKdgbD-74" value="" style="rounded=0;whiteSpace=wrap;html=1;" vertex="1" parent="yVvrD8yItzsmRmxKdgbD-69">
          <mxGeometry x="1040" y="750" width="30" height="30" as="geometry" />
        </mxCell>
        <mxCell id="yVvrD8yItzsmRmxKdgbD-75" value="" style="rounded=0;whiteSpace=wrap;html=1;" vertex="1" parent="yVvrD8yItzsmRmxKdgbD-69">
          <mxGeometry x="120" y="230" width="890" height="550" as="geometry" />
        </mxCell>
        <mxCell id="yVvrD8yItzsmRmxKdgbD-76" value="&lt;font style=&quot;font-size: 26px;&quot;&gt;Number Here // Date Here // Winning Color Here&lt;/font&gt;" style="rounded=0;whiteSpace=wrap;html=1;align=center;" vertex="1" parent="yVvrD8yItzsmRmxKdgbD-69">
          <mxGeometry x="140" y="250" width="850" height="60" as="geometry" />
        </mxCell>
        <mxCell id="yVvrD8yItzsmRmxKdgbD-82" value="&lt;font style=&quot;font-size: 26px;&quot;&gt;Number Here // Date Here // Winning Color Here&lt;/font&gt;" style="rounded=0;whiteSpace=wrap;html=1;align=center;" vertex="1" parent="yVvrD8yItzsmRmxKdgbD-69">
          <mxGeometry x="140" y="330" width="850" height="60" as="geometry" />
        </mxCell>
        <mxCell id="yVvrD8yItzsmRmxKdgbD-83" value="&lt;font style=&quot;font-size: 26px;&quot;&gt;Number Here // Date Here // Winning Color Here&lt;/font&gt;" style="rounded=0;whiteSpace=wrap;html=1;align=center;" vertex="1" parent="yVvrD8yItzsmRmxKdgbD-69">
          <mxGeometry x="140" y="410" width="850" height="60" as="geometry" />
        </mxCell>
        <mxCell id="yVvrD8yItzsmRmxKdgbD-84" value="&lt;font style=&quot;font-size: 26px;&quot;&gt;Number Here // Date Here // Winning Color Here&lt;/font&gt;" style="rounded=0;whiteSpace=wrap;html=1;align=center;" vertex="1" parent="yVvrD8yItzsmRmxKdgbD-69">
          <mxGeometry x="140" y="490" width="850" height="60" as="geometry" />
        </mxCell>
        <mxCell id="yVvrD8yItzsmRmxKdgbD-85" value="&lt;font style=&quot;font-size: 26px;&quot;&gt;Number Here // Date Here // Winning Color Here&lt;/font&gt;" style="rounded=0;whiteSpace=wrap;html=1;align=center;" vertex="1" parent="yVvrD8yItzsmRmxKdgbD-69">
          <mxGeometry x="140" y="570" width="850" height="60" as="geometry" />
        </mxCell>
        <mxCell id="yVvrD8yItzsmRmxKdgbD-86" value="&lt;font style=&quot;font-size: 26px;&quot;&gt;Number Here // Date Here // Winning Color Here&lt;/font&gt;" style="rounded=0;whiteSpace=wrap;html=1;align=center;" vertex="1" parent="yVvrD8yItzsmRmxKdgbD-69">
          <mxGeometry x="140" y="650" width="850" height="60" as="geometry" />
        </mxCell>
        <mxCell id="yVvrD8yItzsmRmxKdgbD-87" value="Game" parent="0" />
        <mxCell id="yVvrD8yItzsmRmxKdgbD-89" value="" style="rounded=0;whiteSpace=wrap;html=1;" vertex="1" parent="yVvrD8yItzsmRmxKdgbD-87">
          <mxGeometry x="90" y="200" width="1020" height="620" as="geometry" />
        </mxCell>
        <mxCell id="yVvrD8yItzsmRmxKdgbD-90" value="" style="rounded=0;whiteSpace=wrap;html=1;" vertex="1" parent="yVvrD8yItzsmRmxKdgbD-87">
          <mxGeometry x="1040" y="230" width="30" height="550" as="geometry" />
        </mxCell>
        <mxCell id="yVvrD8yItzsmRmxKdgbD-91" value="" style="rounded=0;whiteSpace=wrap;html=1;" vertex="1" parent="yVvrD8yItzsmRmxKdgbD-87">
          <mxGeometry x="1040" y="230" width="30" height="30" as="geometry" />
        </mxCell>
        <mxCell id="yVvrD8yItzsmRmxKdgbD-92" value="" style="rounded=0;whiteSpace=wrap;html=1;" vertex="1" parent="yVvrD8yItzsmRmxKdgbD-87">
          <mxGeometry x="1040" y="750" width="30" height="30" as="geometry" />
        </mxCell>
        <mxCell id="yVvrD8yItzsmRmxKdgbD-93" value="&lt;font style=&quot;font-size: 52px;&quot;&gt;Game Notation in this box.&lt;/font&gt;" style="rounded=0;whiteSpace=wrap;html=1;" vertex="1" parent="yVvrD8yItzsmRmxKdgbD-87">
          <mxGeometry x="110" y="280" width="910" height="500" as="geometry" />
        </mxCell>
        <mxCell id="yVvrD8yItzsmRmxKdgbD-94" value="Game Number Here // Date of Game // Winner" style="rounded=0;whiteSpace=wrap;html=1;" vertex="1" parent="yVvrD8yItzsmRmxKdgbD-87">
          <mxGeometry x="110" y="215" width="910" height="45" as="geometry" />
        </mxCell>
      </root>
    </mxGraphModel>
  </diagram>
</mxfile>
